# AST/ASF file generated using VICON BodyLanguage
# -----------------------------------------------
:version 1.10
:name VICON
:units
  mass 1.0
  length 0.45
  angle deg
:documentation
   .ast/.asf automatically generated from VICON data using
   VICON BodyBuilder and BodyLanguage model FoxedUp or BRILLIANT.MOD
:root
   order TX TY TZ RX RY RZ
   axis XYZ
   position 0 0 0  
   orientation 0 0 0 
:bonedata
  begin
     id 1 
     name lhipjoint
     direction 0.522423 -0.726805 0.445902 
     length 2.25074 
     axis 0 0 0  XYZ
  end
  begin
     id 2 
     name lfemur
     direction 0.34202 -0.939693 0  
     length 6.54609  
     axis 0 0 20  XYZ
    dof rx ry rz
    limits (-160.0 20.0)
           (-70.0 70.0)
           (-60.0 70.0)
  end
  begin
     id 3 
     name ltibia
     direction 0.34202 -0.939693 0   
     length 7.7528   
     axis 0 0 20   XYZ
    dof rx
    limits (-10.0 170.0)
  end
  begin
     id 4 
     name lfoot
     direction 0.143696 -0.394801 0.90746   
     length 1.73269   
     axis -90 7.62852e-016 20   XYZ
    dof rx rz
    limits (-45.0 90.0)
           (-70.0 20.0)
  end
  begin
     id 5 
     name ltoes
     direction 1.53633e-011 -4.21912e-011 1   
     length 0.858383   
     axis -90 7.62852e-016 20   XYZ
    dof rx
    limits (-90.0 20.0)
  end
  begin
     id 6 
     name rhipjoint
     direction -0.515943 -0.73016 0.447961   
     length 2.2404  
     axis 0 0 0  XYZ 
  end
  begin
     id 7 
     name rfemur
     direction -0.34202 -0.939693 0   
     length 6.84377   
     axis 0 0 -20   XYZ
    dof rx ry rz
    limits (-160.0 20.0)
           (-70.0 70.0)
           (-70.0 60.0)
  end
  begin
     id 8 
     name rtibia
     direction -0.34202 -0.939693 0   
     length 7.57596   
     axis 0 0 -20   XYZ
    dof rx
    limits (-10.0 170.0)
 end
 begin
     id 9 
     name rfoot
     direction -0.0999372 -0.274575 0.956358   
     length 1.78783  
     axis -90 -7.62852e-016 -20   XYZ
    dof rx rz
    limits (-45.0 90.0)
           (-20.0 70.0)
  end
  begin
     id 10 
     name rtoes
     direction -1.53535e-011 -4.21895e-011 1   
     length 0.898614   
     axis -90 -7.62852e-016 -20   XYZ
    dof rx
    limits (-90.0 20.0)
  end
  begin
     id 11 
     name lowerback
     direction -0.011775 0.996164 -0.0867116   
     length 1.91499   
     axis 0 0 0   XYZ
    dof rx ry rz
    limits (-20.0 45.0)
           (-30.0 30.0)
           (-30.0 30.0)
  end
  begin
     id 12 
     name upperback
     direction -0.00189771 0.999673 -0.0254833   
     length 1.92213   
     axis 0 0 0   XYZ
    dof rx ry rz
    limits (-20.0 45.0)
           (-30.0 30.0)
           (-30.0 30.0)
  end
  begin
     id 13 
     name thorax
     direction 0.00335995 0.999878 0.0152401   
     length 1.93138   
     axis 0 0 0   XYZ
    dof rx ry rz
    limits (-20.0 45.0)
           (-30.0 30.0)
           (-30.0 30.0)
  end
  begin
     id 14 
     name lowerneck
     direction 0.00233191 0.998509 0.0545404   
     length 1.59408   
     axis 0 0 0   XYZ
    dof rx ry rz
    limits (-20.0 45.0)
           (-30.0 30.0)
           (-30.0 30.0)
  end
  begin
     id 15 
     name upperneck
     direction 0.07881 0.9956 -0.0506934   
     length 1.59344   
     axis 0 0 0   XYZ
    dof rx ry rz
    limits (-20.0 45.0)
           (-30.0 30.0)
           (-30.0 30.0)
  end
  begin
     id 16
     name head
     direction 0.0261681 0.999378 -0.0236299  
     length 1.60935  
     axis 0 0 0   XYZ
    dof rx ry rz
    limits (-20.0 45.0)
           (-30.0 30.0)
           (-30.0 30.0)
  end
  begin
     id 17 
     name lclavicle
     direction 0.96643 0.252035 0.0499195  
     length 3.82153  
     axis 0 0 0   XYZ
    dof ry rz
    limits (-20.0 10.0)
           (0.0 20.0)
  end
  begin
     id 18 
     name lhumerus
     direction 1 -4.48967e-011 -2.01614e-018   
     length 4.87796   
     axis 180 -30 -90   XYZ
    dof rx ry rz
    limits (-60.0 90.0)
           (-90.0 90.0)
           (-90.0 90.0)
  end
  begin
     id 19
     name lradius
     direction 1 -4.48958e-011 3.1409e-027   
     length 3.23169   
     axis 180 -30 -90   XYZ
    dof rx
    limits (-10.0 170.0)
  end
  begin
     id 20
     name lwrist
     direction 1 -4.48924e-011 1.0365e-027   
     length 1.61584   
     axis -2.56395e-016 90 90   XYZ
    dof ry
    limits (-180.0 0.0)
 end
  begin
     id 21 
     name lhand
     direction 1 -4.49055e-011 2.09488e-027   
     length 0.731324   
     axis -1.32723e-015 90 90   XYZ
    dof rx rz
    limits (-90.0 90.0)
           (-45.0 45.0)
  end
  begin
     id 22 
     name lfingers
     direction 1 -4.48935e-011 4.14981e-027   
     length 0.589612   
     axis -2.6545e-015 90 90   XYZ
    dof rx
    limits (0.0 90.0)
  end
  begin
     id 23
     name lthumb
     direction 0.707107 -6.35097e-011 0.707107   
     length 0.846569   
     axis -90 45 5.05613e-014   XYZ
    dof rx rz
    limits (-45.0 45.0)
           (-45.0 45.0)
  end
  begin
     id 24 
     name rclavicle
     direction -0.979337 0.201016 0.0221522   
     length 3.73827  
     axis 0 0 0   XYZ 
    dof ry rz
    limits (-10.0 20.0)
           (-20.0 0.0)
  end
  begin
     id 25 
     name rhumerus
     direction -1 -4.48971e-011 1.65907e-027  
     length 4.9143   
     axis 180 30 90   XYZ
    dof rx ry rz
    limits (-90.0 60.0)
           (-90.0 90.0)
           (-90.0 90.0)
  end
  begin
     id 26 
     name rradius
     direction -1 -4.4894e-011 2.17871e-028   
     length 3.29093   
     axis 180 30 90   XYZ
    dof rx
    limits (-10.0 170.0)
  end
  begin
     id 27 
     name rwrist
     direction -1 -4.48971e-011 1.04038e-027   
     length 1.64546   
     axis -2.56395e-016 -90 -90   XYZ
    dof ry
    limits (-180.0 0.0)
  end
  begin
     id 28
     name rhand
     direction -1 -4.49017e-011 2.08843e-027   
     length 0.54512   
     axis -1.32723e-015 -90 -90   XYZ
    dof rx rz
    limits (-90.0 90.0)
           (-45.0 45.0)
  end
  begin
     id 29
     name rfingers
     direction -1 -4.48918e-011 4.1439e-027   
     length 0.43949   
     axis -2.6545e-015 -90 -90   XYZ
    dof rx
    limits (0.0 90.0)
  end
  begin
     id 30
     name rthumb
     direction -0.707107 -6.35065e-011 0.707107   
     length 0.631022   
     axis -90 -45 -5.05613e-014   XYZ
    dof rx rz
    limits (-45.0 45.0)
           (-45.0 45.0)
  end
:hierarchy
  begin
    root lhipjoint rhipjoint lowerback
    lhipjoint lfemur
    lfemur ltibia
    ltibia lfoot
    lfoot ltoes
    rhipjoint rfemur
    rfemur rtibia
    rtibia rfoot
    rfoot rtoes
    lowerback upperback
    upperback thorax
    thorax lowerneck lclavicle rclavicle
    lowerneck upperneck
    upperneck head
    lclavicle lhumerus
    lhumerus lradius
    lradius lwrist
    lwrist lhand lthumb
    lhand lfingers
    rclavicle rhumerus
    rhumerus rradius
    rradius rwrist
    rwrist rhand rthumb
    rhand rfingers
  end

#!OML:ASF H:\BreakDance\Project 1\Capture day 1\Session 1\Male.ASF
:FULLY-SPECIFIED
:DEGREES
1547
root -19.8197 16.1663 5.3131 562.115 30.0977 -538.774
lowerback 10.2616 8.46565 -1.6783
upperback 5.63773 12.5421 -9.83566
thorax 2.30719 7.06016 -10.4238
lowerneck -4.89911 10.6595 11.0702
upperneck -6.32307 13.2622 -6.64379
head 0.0777376 6.23525 -3.71288
rclavicle 1.20066e-013 1.47101e-014
rhumerus 53.8047 17.2099 -40.8794
rradius 53.373
rwrist -2.88712
rhand -22.3666 -48.4375
rfingers 7.12502
rthumb 4.05481 281.621
lclavicle 1.20066e-013 1.47101e-014
lhumerus 34.112 -4.31073 30.7189
lradius 25.4207
lwrist -10.0501
lhand -30.1223 -23.742
lfingers 7.12502
lthumb -3.43556 6.21004
rfemur -50.7381 -12.9266 35.1091
rtibia 77.8636
rfoot -21.633 -10.1396
rtoes 27.5736
lfemur -51.961 -17.3288 -1.51634
ltibia 66.5082
lfoot -1.2947 -19.3963
ltoes 2.50862
1548
root -19.9546 16.0724 5.28761 562.515 32.5828 -538.356
lowerback 9.63617 9.26733 -1.95159
upperback 5.0816 13.6 -10.4328
thorax 2.34159 7.59623 -10.8981
lowerneck -5.15244 10.757 10.8359
upperneck -6.13978 13.3867 -6.61142
head 0.172621 6.30754 -3.6324
rclavicle 6.79844e-014 -8.42847e-014
rhumerus 56.1202 18.5531 -40.783
rradius 53.1115
rwrist -2.5134
rhand -21.605 -49.2154
rfingers 7.12502
rthumb 4.79014 280.859
lclavicle 6.79844e-014 -8.42847e-014
lhumerus 32.3741 -3.57843 28.8866
lradius 25.8808
lwrist -10.0808
lhand -29.8848 -23.4755
lfingers 7.12502
lthumb -3.2062 6.48015
rfemur -50.3375 -14.1933 36.361
rtibia 81.4573
rfoot -21.169 -9.30689
rtoes 27.3017
lfemur -51.1291 -18.15 -0.750264
ltibia 65.4491
lfoot -2.85109 -21.0152
ltoes -0.492102
1549
root -20.0916 15.9684 5.25749 563.05 34.8475 -537.879
lowerback 8.88127 9.95999 -2.05955
upperback 4.51739 14.5312 -10.9764
thorax 2.45024 8.07092 -11.3531
lowerneck -5.41184 10.8805 10.5476
upperneck -5.99694 13.548 -6.62773
head 0.257929 6.39791 -3.55768
rclavicle 5.56597e-015 -9.54166e-015
rhumerus 58.4406 19.8426 -40.6216
rradius 52.8526
rwrist -2.26027
rhand -20.9961 -50.0405
rfingers 7.12502
rthumb 5.37815 280.048
lclavicle 5.56597e-015 -9.54166e-015
lhumerus 30.4971 -2.68992 27.2509
lradius 26.4058
lwrist -10.1663
lhand -29.7121 -23.2811
lfingers 7.12502
lthumb -3.03938 6.67697
rfemur -49.9358 -15.5563 37.5251
rtibia 84.929
rfoot -20.5029 -7.85918
rtoes 26.3462
lfemur -50.4413 -18.6162 -0.345141
ltibia 64.8853
lfoot -5.23877 -22.2339
ltoes -5.19393
1550
root -20.2312 15.8564 5.22544 563.697 36.8636 -537.398
lowerback 8.0115 10.5449 -2.03191
upperback 3.97088 15.3435 -11.4838
thorax 2.65463 8.49146 -11.7885
lowerneck -5.71253 11.0268 10.2567
upperneck -5.91123 13.7324 -6.70609
head 0.337937 6.49602 -3.50108
rclavicle -3.18055e-014 5.725e-014
rhumerus 60.6835 21.0029 -40.4475
rradius 52.6273
rwrist -2.09855
rhand -20.4725 -50.6604
rfingers 7.12502
rthumb 5.88363 279.441
lclavicle -3.18055e-014 5.725e-014
lhumerus 28.6135 -1.62639 25.845
lradius 26.9279
lwrist -10.2981
lhand -29.6389 -23.0878
lfingers 7.12502
lthumb -2.96869 6.87132
rfemur -49.5787 -17.0061 38.5849
rtibia 88.2415
rfoot -19.6771 -5.85517
rtoes 24.697
lfemur -49.97 -18.6528 -0.362293
ltibia 64.8039
lfoot -8.24677 -22.6387
ltoes -9.88583
1551
root -20.3699 15.743 5.1959 564.392 38.5728 -536.946
lowerback 7.12317 11.0262 -1.92339
upperback 3.45629 16.0315 -11.9467
thorax 2.90027 8.85307 -12.1888
lowerneck -6.05572 11.1877 10.0521
upperneck -5.88185 13.9236 -6.893
head 0.422822 6.59181 -3.4939
rclavicle -3.18055e-014 -3.97569e-015
rhumerus 62.7347 21.9961 -40.3492
rradius 52.4362
rwrist -1.97749
rhand -20.2058 -50.6041
rfingers 7.12502
rthumb 6.14117 279.505
lclavicle -3.18055e-014 -3.97569e-015
lhumerus 26.8299 -0.417521 24.6866
lradius 27.4034
lwrist -10.4443
lhand -29.6762 -22.809
lfingers 7.12502
lthumb -3.00475 7.14955
rfemur -49.2206 -18.5403 39.5668
rtibia 91.3296
rfoot -18.7736 -3.42458
rtoes 22.4993
lfemur -49.72 -18.237 -0.767689
ltibia 65.1081
lfoot -11.653 -22.0344
ltoes -13.9734
1552
root -20.5044 15.6352 5.17225 565.049 39.9063 -536.552
lowerback 6.30316 11.4086 -1.77383
upperback 2.9965 16.5892 -12.3381
thorax 3.14049 9.14921 -12.5281
lowerneck -6.37204 11.3389 9.91095
upperneck -5.95288 14.0945 -7.12113
head 0.477007 6.67162 -3.51702
rclavicle -2.8625e-014 2.78299e-014
rhumerus 64.3957 22.816 -40.4231
rradius 52.3824
rwrist -1.81268
rhand -20.3023 -49.8424
rfingers 7.12502
rthumb 6.04796 280.264
lclavicle -2.8625e-014 2.78299e-014
lhumerus 25.2497 0.935212 23.857
lradius 27.78
lwrist -10.651
lhand -29.826 -22.3904
lfingers 7.12502
lthumb -3.1494 7.56607
rfemur -48.7881 -20.187 40.5027
rtibia 94.1272
rfoot -17.8562 -0.705543
rtoes 19.8332
lfemur -49.6672 -17.4578 -1.46562
ltibia 65.6575
lfoot -14.9285 -20.5615
ltoes -15.8683
1553
root -20.6308 15.5394 5.15655 565.554 40.8094 -536.263
lowerback 5.6023 11.6955 -1.64926
upperback 2.63075 17.0105 -12.6151
thorax 3.34975 9.3708 -12.7408
lowerneck -6.55227 11.4547 9.86948
upperneck -6.16285 14.2189 -7.44339
head 0.474903 6.72504 -3.60413
rclavicle -3.57812e-014 7.15625e-014
rhumerus 65.5253 23.4879 -40.7374
rradius 52.5065
rwrist -1.53233
rhand -20.6239 -48.7931
rfingers 7.12502
rthumb 5.73743 281.305
lclavicle -3.57812e-014 7.15625e-014
lhumerus 23.9543 2.52722 23.5296
lradius 28.0035
lwrist -11.0505
lhand -30.0521 -21.8599
lfingers 7.12502
lthumb -3.3678 8.09323
rfemur -48.2 -21.9722 41.3891
rtibia 96.5848
rfoot -16.9052 2.21359
rtoes 17.4417
lfemur -49.732 -16.4618 -2.36058
ltibia 66.2892
lfoot -17.8296 -18.6124
ltoes -16.702
1554
root -20.7467 15.4594 5.14905 565.821 41.2479 -536.107
lowerback 5.05015 11.8828 -1.57492
upperback 2.39314 17.28 -12.7309
thorax 3.51472 9.50406 -12.7737
lowerneck -6.51412 11.5099 9.88997
upperneck -6.50974 14.2753 -7.8634
head 0.398685 6.74651 -3.75748
rclavicle -3.89618e-014 -8.82604e-014
rhumerus 66.058 24.0771 -41.2894
rradius 52.8443
rwrist -1.15218
rhand -21.0397 -47.3153
rfingers 7.12502
rthumb 5.33605 282.772
lclavicle -3.89618e-014 -8.82604e-014
lhumerus 22.9652 4.46663 23.8727
lradius 28.0601
lwrist -11.7325
lhand -30.2902 -21.2698
lfingers 7.12502
lthumb -3.59766 8.67957
rfemur -47.4125 -23.8962 42.2191
rtibia 98.6916
rfoot -15.9105 5.22512
rtoes 15.5167
lfemur -49.8324 -15.4447 -3.31134
ltibia 66.8527
lfoot -20.1193 -16.7422
ltoes -15.9058
1555
root -20.8534 15.3931 5.14909 565.797 41.2243 -536.101
lowerback 4.66829 11.9805 -1.53687
upperback 2.30308 17.4144 -12.6865
thorax 3.64883 9.55958 -12.6431
lowerneck -6.32591 11.4701 9.84298
upperneck -6.91216 14.2197 -8.19115
head 0.255033 6.71691 -3.88853
rclavicle 3.10104e-014 1.35174e-014
rhumerus 65.9426 24.5733 -42.1064
rradius 53.3688
rwrist -0.660214
rhand -21.7487 -46.6306
rfingers 7.12502
rthumb 4.65144 283.44
lclavicle 3.10104e-014 1.35174e-014
lhumerus 22.3364 6.72292 24.9182
lradius 28.0062
lwrist -12.6401
lhand -30.5229 -20.6296
lfingers 7.12502
lthumb -3.82245 9.31589
rfemur -46.4442 -25.9242 42.9658
rtibia 100.493
rfoot -14.8616 8.38625
rtoes 13.9355
lfemur -49.8623 -14.5562 -4.23501
ltibia 67.2408
lfoot -22.1754 -15.1856
ltoes -14.549
1556
root -20.955 15.3357 5.15516 565.476 40.7786 -536.264
lowerback 4.46177 12.004 -1.50048
upperback 2.34769 17.442 -12.5195
thorax 3.76476 9.55768 -12.4132
lowerneck -6.08287 11.3157 9.72669
upperneck -7.23442 14.0253 -8.3835
head 0.0981543 6.62473 -3.97312
rclavicle -2.46493e-014 8.42847e-014
rhumerus 65.1747 24.9413 -43.1708
rradius 54.0023
rwrist -0.112068
rhand -22.0268 -46.221
rfingers 7.12502
rthumb 4.38285 283.844
lclavicle -2.46493e-014 8.42847e-014
lhumerus 22.0735 9.08277 26.5598
lradius 27.9557
lwrist -13.5431
lhand -30.7622 -20.0126
lfingers 7.12502
lthumb -4.05353 9.92861
rfemur -45.398 -27.9835 43.5837
rtibia 102.083
rfoot -13.5844 11.7026
rtoes 13.5876
lfemur -49.7552 -13.9271 -5.07532
ltibia 67.3744
lfoot -24.0988 -14.1721
ltoes -12.9119
1557
root -21.0547 15.2847 5.1658 564.889 40.0108 -536.649
lowerback 4.4107 11.9835 -1.48559
upperback 2.47965 17.4154 -12.3175
thorax 3.86063 9.53305 -12.169
lowerneck -5.91173 11.0355 9.59617
upperneck -7.34634 13.6697 -8.37394
head -0.0104824 6.45621 -3.98568
rclavicle 1.51076e-014 6.04305e-014
rhumerus 63.7629 25.1029 -44.4814
rradius 54.6469
rwrist 0.455014
rhand -22.4464 -45.8611
rfingers 7.12502
rthumb 3.97771 284.196
lclavicle 1.51076e-014 6.04305e-014
lhumerus 22.1498 11.1464 28.5447
lradius 28.0622
lwrist -14.1022
lhand -31.02 -19.4378
lfingers 7.12502
lthumb -4.30245 10.4985
rfemur -44.4155 -29.9479 44.0013
rtibia 103.564
rfoot -11.9323 15.058
rtoes 14.801
lfemur -49.5088 -13.6113 -5.86151
ltibia 67.2032
lfoot -26.1736 -13.6357
ltoes -12.7446
1558
root -21.1537 15.2376 5.18091 564.116 39.0224 -537.253
lowerback 4.47856 11.9386 -1.50917
upperback 2.64739 17.3702 -12.157
thorax 3.93141 9.50909 -11.9799
lowerneck -5.89736 10.6449 9.47632
upperneck -7.18886 13.1691 -8.12355
head -0.0353413 6.2166 -3.90775
rclavicle 1.05753e-013 4.45278e-014
rhumerus 61.7686 24.9923 -46.0391
rradius 55.211
rwrist 1.04932
rhand -22.9642 -45.5576
rfingers 7.12502
rthumb 3.47769 284.491
lclavicle 1.05753e-013 4.45278e-014
lhumerus 22.4961 12.5846 30.6278
lradius 28.3995
lwrist -14.1222
lhand -31.2956 -18.9808
lfingers 7.12502
lthumb -4.56857 10.9499
rfemur -43.6226 -31.6654 44.2117
rtibia 105.014
rfoot -10.0573 18.1243
rtoes 16.1176
lfemur -49.1327 -13.5671 -6.65613
ltibia 66.6982
lfoot -28.2489 -13.5375
ltoes -12.6871
1559
root -21.2503 15.1952 5.20095 563.274 37.8694 -538.036
lowerback 4.60592 11.8693 -1.57988
upperback 2.80529 17.3092 -12.0803
thorax 3.97325 9.48804 -11.8771
lowerneck -6.03648 10.1848 9.41957
upperneck -6.79701 12.5723 -7.68645
head 0.0260722 5.92868 -3.76599
rclavicle -1.27222e-014 2.54444e-014
rhumerus 59.3267 24.5826 -47.8191
rradius 55.5814
rwrist 1.68227
rhand -23.492 -45.2597
rfingers 7.12502
rthumb 2.96793 284.781
lclavicle -1.27222e-014 2.54444e-014
lhumerus 22.9939 13.1898 32.5806
lradius 28.9848
lwrist -13.5914
lhand -31.5875 -18.6926
lfingers 7.12502
lthumb -4.85039 11.2319
rfemur -43.1298 -33.017 44.2855
rtibia 106.461
rfoot -8.11312 20.6462
rtoes 17.4955
lfemur -48.6742 -13.6706 -7.48976
ltibia 65.8597
lfoot -30.3563 -13.6549
ltoes -13.1128
1560
root -21.3415 15.1612 5.22621 562.442 36.5799 -538.998
lowerback 4.72835 11.7628 -1.75487
upperback 2.92716 17.2155 -12.1081
thorax 3.97975 9.45887 -11.8417
lowerneck -6.28044 9.68172 9.42578
upperneck -6.25362 11.9105 -7.072
head 0.143234 5.60769 -3.56947
rclavicle -1.15295e-014 -6.83819e-014
rhumerus 56.5078 23.8747 -49.7682
rradius 55.8048
rwrist 2.34486
rhand -23.94 -44.9583
rfingers 7.12502
rthumb 2.5353 285.077
lclavicle -1.15295e-014 -6.83819e-014
lhumerus 23.5513 12.9067 34.2637
lradius 29.7788
lwrist -12.6935
lhand -31.8934 -18.5577
lfingers 7.12502
lthumb -5.14577 11.3598
rfemur -43.0407 -33.9424 44.2672
rtibia 107.904
rfoot -6.3995 22.4386
rtoes 17.935
lfemur -48.2026 -13.8067 -8.41757
ltibia 64.7226
lfoot -32.4045 -13.8305
ltoes -13.7154
1561
root -21.4238 15.1408 5.25674 561.677 35.1422 -540.092
lowerback 4.82523 11.5918 -2.03804
upperback 3.01627 17.0434 -12.2008
thorax 3.94066 9.39234 -11.8254
lowerneck -6.50214 9.17636 9.47943
upperneck -5.70583 11.2406 -6.4247
head 0.261867 5.28386 -3.37345
rclavicle 6.52014e-014 -4.37326e-014
rhumerus 53.4139 22.9377 -51.7728
rradius 55.9484
rwrist 2.9712
rhand -24.2353 -44.9148
rfingers 7.12502
rthumb 2.25015 285.117
lclavicle 6.52014e-014 -4.37326e-014
lhumerus 24.074 11.8735 35.6903
lradius 30.7114
lwrist -11.7307
lhand -32.2016 -18.5698
lfingers 7.12502
lthumb -5.44339 11.3403
rfemur -43.3694 -34.4237 44.209
rtibia 109.291
rfoot -5.18782 23.4941
rtoes 17.3894
lfemur -47.7716 -13.876 -9.45017
ltibia 63.3683
lfoot -34.3406 -13.9097
ltoes -14.9117
